<svg xmlns="http://www.w3.org/2000/svg" viewBox="0 0 1600 900" role="img" aria-labelledby="title desc">
  <title id="title">Team workspace placeholder</title>
  <desc id="desc">Abstract collaboration scene for the about page.</desc>
  <defs>
    <linearGradient id="bg" x1="0%" y1="0%" x2="100%" y2="100%">
      <stop offset="0%" stop-color="#0f172a"/>
      <stop offset="50%" stop-color="#1d4ed8"/>
      <stop offset="100%" stop-color="#22d3ee"/>
    </linearGradient>
    <linearGradient id="panel" x1="0%" y1="0%" x2="100%" y2="100%">
      <stop offset="0%" stop-color="rgba(255,255,255,0.35)"/>
      <stop offset="100%" stop-color="rgba(255,255,255,0.08)"/>
    </linearGradient>
  </defs>
  <rect width="1600" height="900" fill="url(#bg)"/>
  <circle cx="1260" cy="190" r="170" fill="#60a5fa" opacity="0.22"/>
  <circle cx="330" cy="120" r="210" fill="#a78bfa" opacity="0.18"/>
  <rect x="120" y="140" width="1360" height="620" rx="36" fill="#0b1220" opacity="0.88"/>
  <rect x="170" y="190" width="450" height="520" rx="26" fill="#111c30"/>
  <rect x="660" y="190" width="770" height="250" rx="26" fill="#111c30"/>
  <rect x="660" y="470" width="360" height="240" rx="26" fill="#111c30"/>
  <rect x="1070" y="470" width="360" height="240" rx="26" fill="#111c30"/>
  <rect x="210" y="240" width="220" height="16" rx="8" fill="#60a5fa"/>
  <rect x="210" y="278" width="310" height="14" rx="7" fill="#94a3b8" opacity="0.6"/>
  <rect x="210" y="320" width="280" height="14" rx="7" fill="#94a3b8" opacity="0.45"/>
  <rect x="210" y="388" width="370" height="180" rx="20" fill="#162742"/>
  <rect x="702" y="232" width="220" height="18" rx="9" fill="#22d3ee"/>
  <rect x="702" y="272" width="410" height="14" rx="7" fill="#94a3b8" opacity="0.55"/>
  <rect x="702" y="320" width="660" height="78" rx="18" fill="#162742"/>
  <rect x="710" y="514" width="110" height="110" rx="26" fill="#2563eb"/>
  <rect x="845" y="514" width="110" height="110" rx="26" fill="#7c3aed"/>
  <rect x="1120" y="514" width="260" height="18" rx="9" fill="#f8fafc" opacity="0.8"/>
  <rect x="1120" y="555" width="220" height="14" rx="7" fill="#94a3b8" opacity="0.55"/>
  <rect x="1120" y="594" width="240" height="14" rx="7" fill="#94a3b8" opacity="0.4"/>
  <g fill="#f8fafc">
    <circle cx="230" cy="625" r="34"/>
    <circle cx="315" cy="625" r="34" opacity="0.85"/>
    <circle cx="400" cy="625" r="34" opacity="0.7"/>
  </g>
  <text x="210" y="665" fill="#e2e8f0" font-family="Arial, sans-serif" font-size="38" font-weight="700">Building products together</text>
</svg>
